<svg xmlns:xlink="http://www.w3.org/1999/xlink" xmlns="http://www.w3.org/2000/svg" viewBox="0 0 687.4 620.6" width="687.4"  height="620.6" >
  <path fill="#3B95D1" d="M256.5 534.7V381.2c0-33.8-23.3-62.1-54.6-70-5.6-1.4-11.5-2.3-17.6-2.3h-112C32.4 309 0 341.3 0 381.2v153.5"/>
  <path fill="#005C99" d="M687.4 534.7V419.4c0-31.3-25.4-56.7-56.7-56.7H517.3c-31.3 0-56.7 25.4-56.7 56.7v115.4"/>
  <path fill="#56C9ED" d="M601.4 448.8H85.9C38.7 448.8 0 487.5 0 534.7c0 12.9 2.9 25.1 8 36.1 9.5 20.3 26.6 36.3 47.6 44.3 9.4 3.6 19.6 5.6 30.3 5.6h515.5c15.1 0 29.3-4 41.7-10.9 15.8-8.8 28.5-22.5 36.2-38.9 5.1-11 8-23.2 8-36.1.1-47.3-38.6-86-85.9-86z"/>
  <path fill="#005C99" d="M256.5 448.8h67.1v171.8h-67.1z"/>
  <path fill="#FFF" d="M323.5 448.8h137.2v171.8H323.5z"/>
  <ellipse fill="#56C9ED" cx="363.5" cy="101.8" rx="101.9" ry="101.8"/>
  <ellipse fill="#3B95D1" cx="128.2" cy="182.6" rx="90.3" ry="90.3"/>
  <g>
    <path fill="none" d="M256.5 448.8V493l63.5-44.2"/>
    <path fill="#FFF" d="M405 620.6h.8v-.5"/>
    <path fill="none" d="M306.4 534.7l-49.9 34.8 49.9-34.8"/>
    <path fill="#56C9ED" d="M306.4 534.7l17.1-12 4-2.7-21.1 14.7M460.6 458.1v-38.8c0-31.3 25.4-56.7 56.7-56.7h9.1v-36.9c0-45-36.5-81.4-81.5-81.4H282c-40 0-73.3 28.9-80.2 66.9 31.4 7.9 54.6 36.2 54.6 70v67.6h196.7"/>
    <path fill="#005C99" d="M256.5 507.6V524"/>
    <path fill="#3B95D1" d="M405.8 512.7l54.8-38.2-65.2 45.5"/>
    <g fill="#3B95D1">
      <path d="M449.4 620.6l11.2-7.8v-14.6l-32.1 22.4M360.6 620.6l100-69.7v-14.5l-120.9 84.2M405 620.6l.8-.5 54.8-38.2v-14.6l-76.5 53.3M275.6 448.8l-19.1 13.3v14.6l40-27.9M320 448.8L256.5 493v14.6l84.4-58.8M256.5 620.6h15.3l188.8-131.5v-14.6L256.5 616.8M316.2 620.6L460.6 520v-14.6L295.3 620.6M364.4 448.8L256.5 524v14.6l128.8-89.8M408.7 448.8L256.5 554.9v14.6l173.2-120.7M453.1 448.8l-196.6 137v14.6l204.1-142.3v-9.3"/>
    </g>
  </g>
  <ellipse fill="#005C99" cx="574" cy="263.6" rx="70.9" ry="70.8"/>
</svg>