<svg xmlns:xlink="http://www.w3.org/1999/xlink" xmlns="http://www.w3.org/2000/svg" viewBox="167.4 -286 355.3 592" width="325"  height="542" ><path d="m346.5-286h-1.5c-98.1 0-177.6 79.4-177.6 177.5 0 33.9 9.5 65.6 26.1 92.6 7.2 12 37.9 64.1 41 76.7 6.2 25.7 4 35.5 8 53.2 0 .2.1.3.2.5 1.3 10.1 5.8 18.9 9.8 25 1.6 2.4 3 4.4 4.2 5.8h.1l.3.3c.5.7 1.2 1.2 1.9 1.6-.1.2-.1.4-.1.6h173.1c0-.1 0-.2-.1-.3 1-.5 1.9-1.2 2.6-2.1l.1-.1h-.1c1.1-1.5 2.5-3.4 3.9-5.8 4.2-6.9 9.2-17.4 9.5-29.2 3-15.6 1.5-25.7 7.2-49.6 2.5-10.5 24.4-48.6 35.7-67.9 20.1-28.8 31.9-63.7 31.9-101.4-.1-97.5-78.8-176.6-176.2-177.4z" fill="#fada6c"/><path d="m167.4-108.6c0 33.9 9.5 65.6 26.1 92.6 7.2 12 37.9 64.1 41 76.7 6.2 25.7 4 35.5 8 53.2 0 .2.1.3.2.5 1.3 10.1 5.8 18.9 9.8 25 1.6 2.4 3 4.4 4.2 5.8h.1l.3.3c.5.7 1.2 1.2 1.9 1.6-.1.2-.1.4-.1.6h85.6v-433.7c-97.9.3-177.1 79.6-177.1 177.4z" fill="#fada6c"/><path d="m346.5-286h-2.2v126h170.7c-21.9-72.5-89-125.4-168.5-126z" fill="#fff"/><g fill="#ffba32"><path d="m344.3 147.8h87.4c0-.1 0-.2-.1-.3 1-.5 1.9-1.2 2.6-2.1l.1-.1h-.1c1.1-1.5 2.5-3.4 3.9-5.8 4.2-6.9 9.2-17.4 9.5-29.2 3-15.6 1.5-25.7 7.2-49.6 1.5-6.2 9.8-22.1 18.6-38h-129.1zm178.3-256.4c0-17.9-2.7-35.1-7.6-51.4h-170.7v107.4h169.2c5.9-17.6 9.1-36.4 9.1-56z"/><path d="m513.5-52.6h-169.2v75.4h129.2c6.1-11 12.5-22 17.1-29.9 9.8-13.9 17.5-29.2 22.9-45.5z"/></g><path d="m263.5 259.4c0 25.7 55 46.6 80.7 46.6s82.5-20.9 82.5-46.6l3.7-81.5h-170.5z" fill="#d4d6d6"/><path d="m258.6 148.3 1.4 29.5h170.6l1.3-29.6c0-.1 0-.3-.1-.4h-173.1c0 .2-.1.3-.1.5z" fill="#ff6d19"/><g fill="none"><path d="m495.9-171.4 10.8-10.8c-.5-1.1-1-2.2-1.5-3.2l-14 14zm-9 0 16.8-16.8c-.5-1.1-1.1-2.1-1.6-3.1l-20 20h4.8zm-6.9-2.1 20.6-20.6c-.6-1-1.1-2-1.7-3l-18.9 18.8zm24.9 2.1 4.5-4.5c-.5-1.1-.9-2.2-1.4-3.3l-7.8 7.8zm-24.9-38.1 6.4-6.4-2.1-2.7-4.3 4.3zm0 9 10.2-10.2c-.7-.9-1.3-1.9-2-2.8l-8.2 8.2zm0-18 2.5-2.5c-.7-.9-1.4-1.7-2.2-2.6l-.3.3zm0 27 13.9-13.9c-.6-1-1.3-1.9-1.9-2.9l-12 12zm0 9 17.3-17.3c-.6-1-1.2-2-1.8-2.9l-15.5 15.4zm31.1 11.1-.6-1.5-1.5 1.5z"/><path d="m480-164.5 6.9-6.9h-4.8l-2.1 2.1m8.7 9.3h4.8l11.4-11.4h-4.8m-20.1 11.4h4.5l11.4-11.4h-4.8l-11.1 11.1m31.5.3 2.7-2.7-1.2-3.6-6.2 6.2h4.7zm-13.8 0h4.8l9.4-9.4c-.2-.7-.5-1.3-.7-2h-2zm-98.7-103.5 10.5-10.5c-1.1-.4-2.3-.9-3.5-1.3l-7 7zm0 9 16.8-16.8c-1.1-.5-2.2-1-3.3-1.4l-13.5 13.4zm6.9 2.1 16.1-16.1c-1.1-.5-2.2-1-3.2-1.5l-17.7 17.7h4.8zm43.2 0c-.6-.4-1.1-.8-1.7-1.2l-1.2 1.2zm-16.2 0 6.5-6.5c-1-.6-2-1.2-2.9-1.8l-8.3 8.3zm-9 0 9.9-9.9c-1-.6-2-1.2-3-1.7l-11.6 11.6zm-9 0 13.1-13.1c-1-.6-2.1-1.1-3.1-1.6l-14.7 14.7zm27 0 3-3c-.9-.6-1.9-1.3-2.9-1.9l-4.9 4.9zm-42.9-20.1 3.9-3.9-3.6-1.2-.3.3zm42.9 101.1 38.1-38.1v-4.8l-42.9 42.9m-38.1-20.1 56.2-56.2-2.7-2.1-53.5 53.5z"/><path d="m432.9-252.4h-4.8l-29.1 29.1v4.8m0 9 42.9-42.9h-4.8l-38.1 38.1m78.9 42.9 2.1-2.1v-4.8l-6.9 6.9m-22.2 0 29.1-29.1v-4.8l-33.9 33.9m22.8 0 11.1-11.1v-4.8l-15.9 15.9m-4.2 0 20.1-20.1v-4.8l-24.9 24.9m24.9-47.1v-4.8l-51.9 51.9h4.8m-13.8-81-20.1 20.1v4.8l24.9-24.9m0 81 54.4-54.4c-.7-.8-1.5-1.7-2.3-2.5l-56.9 56.9zm-24.9-33.9v4.8l51.1-51.1c-.3-.3-.7-.5-1-.8h-3zm2.1-47.1-2.1 2.1v4.8l6.9-6.9m9 81 59.1-59.1c-.8-.8-1.5-1.6-2.3-2.4l-61.6 61.6h4.8zm-4.8-81-11.1 11.1v4.8l15.9-15.9m-15.9 69.9 61.2-61.2c-.9-.7-1.7-1.5-2.6-2.2l-58.6 58.6zm0 9 65.9-65.9c-.8-.8-1.7-1.5-2.5-2.3l-63.4 63.4zm6.9 2.1 63.7-63.7c-.8-.8-1.6-1.6-2.4-2.3l-66 66z"/><path d="m414.9-171.4h-4.8l-11.1 11.1v.3h4.5m27 0 11.4-11.4h-4.8l-11.4 11.4m-13.2 0 11.4-11.4h-4.8l-11.4 11.4m13.8 0 11.4-11.4h-4.8l-11.4 11.4m63.3 0v-.3l-.3.3m-80.7-4.5 6.9-6.9h-4.8l-2.1 2.1m81 4.8v-4.8l-9.3 9.3h4.8m-36 0 11.4-11.4h-4.8l-11.4 11.4m22.8 0 11.4-11.4h-4.8l-11.4 11.4m-4.2 0 11.4-11.4h-4.8l-11.4 11.4m29.4-11.4-11.4 11.4h4.8l11.4-11.4m-78.9-96.9-15.9 15.9h4.8l11.1-11.1m-45.5-22.3-9.2 9.2v4.8l13.7-13.7zm45.5 26.5-6.9 6.9h4.8l2.1-2.1m-38.1 2.1 28.1-28.1c-1.3-.3-2.5-.6-3.8-.9l-29.1 29.1h4.8zm38.1-24.9-24.9 24.9h4.8l20.1-20.1m-47.1 20.1 29.8-29.8c-1.3-.3-2.6-.5-4-.8l-30.6 30.6zm18 0 26.2-26.2c-1.2-.4-2.5-.7-3.7-1.1l-27.3 27.3zm-7.9-32.8-17.7 17.7v4.8l22-22c-1.5-.2-2.9-.4-4.3-.5zm-15.5-.8h-1.8l-.4.4v4.8l5.1-5.1c-.9-.1-1.9-.1-2.9-.1zm23.5 1.7-25.7 25.7v4.8l29.8-29.8c-1.3-.3-2.7-.5-4.1-.7zm29 74.8v-4.8l-42.9 42.9h4.8m13.2-81-29.8 29.8v4.8l34.6-34.6"/><path d="m383.1-252.4-38.8 38.8v4.8l43.6-43.6m-40.8 0-2.8 2.8v4.8l7.6-7.6m45 81 2.1-2.1v-4.8l-6.9 6.9m0-81-47.8 47.8v4.8l52.6-52.6m-31.8 0-20.8 20.8v4.8l25.6-25.6m0 81 29.1-29.1v-4.8l-33.9 33.9m-9-81-11.8 11.8v4.8l16.6-16.6m18 81 20.1-20.1v-4.8l-24.9 24.9m24.9-78.9-54.7 54.7v4.8l54.7-54.7m0 22.2-51.9 51.9h4.8l47.1-47.1m-11.1 47.1 11.1-11.1v-4.8l-15.9 15.9m15.9-69.9-54.7 54.7v4.8l54.7-54.7m0 4.2-54.7 54.7v4.8l54.7-54.7m-33.9 56.1-11.4 11.4h4.8l11.4-11.4m-13.8 0-11.4 11.4h4.8l11.4-11.4m-13.8 0-2.8 2.8v4.8l7.6-7.6"/><path d="m374.1-171.4-11.4 11.4h4.8l11.4-11.4m20.1 2.1-9.3 9.3h4.8l4.5-4.5m-.3 4.5h.3v-.3m-15.9-11.1-11.4 11.4h4.8l11.4-11.4m4.2 0-11.4 11.4h4.8l11.4-11.4m99 81 26.5-26.5-.3-4.5-31 31zm-15.9-2.1 40.9-40.9c-.2-1.4-.4-2.8-.6-4.1l-40.3 40.2zm0-45 22.5-22.5h-4.8l-17.7 17.7m6.9 51.9 34.9-34.9c-.1-1.4-.3-2.9-.5-4.3l-39.2 39.2zm-6.9-20.1 38-38c-.3-1.3-.6-2.6-.9-3.8l-37.1 37zm24.9 20.1 17.7-17.7v-.5c0-1.4 0-2.8-.1-4.2l-22.4 22.4zm-24.9-56.1 13.5-13.5h-4.8l-8.7 8.7m0 22.8 31.5-31.5h-4.8l-26.7 26.7m4.5-26.7h-4.5v4.5m33.9 65.1 8.4-8.4c.1-1.6.2-3.3.2-5l-13.4 13.4zm-33.9-29.1 36.2-36.2c-.3-1.2-.7-2.5-1.1-3.7l-35.1 35.1zm0 18 39.6-39.6c-.2-1.3-.5-2.7-.8-4l-38.8 38.8zm41.7 11.1c.1-1.3.3-2.6.4-3.9l-3.9 3.9zm-41.7 15.9 15.9-15.9h-4.8l-11.1 11.1m32.1 26.7 2.1-2.1c.7-2.2 1.4-4.5 2-6.8l-8.9 8.9zm-9 0 14.6-14.6c.5-2 .9-4.1 1.4-6.1l-20.7 20.7z"/><path d="m480-65.5 24.9-24.9h-4.8l-20.1 20.1m.3 17.7h4.8l36.4-36.4c.1-.5.1-.9.2-1.4h-3.5zm-.3-30.9 6.9-6.9h-4.8l-2.1 2.1m14.1 35.7 25.9-25.9c.3-1.9.6-3.7.9-5.6l-31.6 31.6h4.8zm-14.1-3.9 33.9-33.9h-4.8l-29.1 29.1m-11.1-29.1 11.1-11.1v-4.8l-15.9 15.9m-4.2 0 20.1-20.1v-4.8l-24.9 24.9m22.8 0 2.1-2.1v-4.8l-6.9 6.9m-22.2 0 29.1-29.1v-4.8l-33.9 33.9m-27 0h4.8l56.1-56.1v-4.8m-58.5-8.7h-4.8l-17.7 17.7v4.8m81-4.8-51.9 51.9h4.8l47.1-47.1m-81-22.5v4.5l4.5-4.5m4.2 0-8.7 8.7v4.8l13.5-13.5m24.6 69.6h4.8l38.1-38.1v-4.8m0-26.7h-.3l-69.6 69.6h4.8l65.1-65.1m-45.3-4.5-35.7 35.7v4.8l40.5-40.5m13.2 0-53.7 53.7v4.8l58.5-58.5m-58.5 62.7v4.8l67.5-67.5h-4.8m9 0-69.6 69.6h4.8l69.6-69.6m-49.8 0-26.7 26.7v4.8l31.5-31.5m13.2 0-44.7 44.7v4.8l49.5-49.5m31.5 80.7-26.7 26.7h4.8l21.9-21.9"/><path d="m480-70.3-17.7 17.7h4.8l12.9-12.9m0-22.8-35.7 35.7h4.8l30.9-30.9m-69.9-6.9-11.1 11.1v4.8l15.9-15.9m-15.9 29.1v4.8l33.9-33.9h-4.8m-9 0-20.1 20.1v4.8l24.9-24.9m31.2 0-37.8 37.8h4.8l37.8-37.8m-58.8 0-2.1 2.1v4.8l6.9-6.9m58.2 0-37.8 37.8h4.8l37.8-37.8m-22.8 0-37.8 37.8h4.8l37.8-37.8m-13.8 0-37.8 37.8h4.8l37.8-37.8m31.2 0-37.8 37.8h4.8l37.8-37.8m2.1 29.1-8.7 8.7h4.8l3.9-3.9m-81-76.8-42.9 42.9h4.8l38.1-38.1m0 4.2-33.9 33.9h4.8l29.1-29.1m0 13.2-15.9 15.9h4.8l11.1-11.1m0-40.8-51.9 51.9h4.8l47.1-47.1m-9.3-22.5-45.4 45.4v4.8l50.2-50.2m4.5 8.7-54.7 54.7v4.8l54.7-54.7m0-13.5h-.3l-54.4 54.4v4.8l54.7-54.7m0 40.2-24.9 24.9h4.8l20.1-20.1m-36.3-49.5-18.4 18.4v4.8l23.2-23.2m13.2 0-36.4 36.4v4.8l41.2-41.2m-40.8 0-.4.4v4.8l5.2-5.2m4.2 0-9.4 9.4v4.8l14.2-14.2m40.5 62.7-6.9 6.9h4.8l2.1-2.1m-27.3-67.5-27.4 27.4v4.8l32.2-32.2"/><path d="m383.1-90.4-37.8 37.8h4.8l37.8-37.8m-13.8 0-29.8 29.8v4.8l34.6-34.6m13.2 0-37.8 37.8h4.8l37.8-37.8m2.1 2.1-35.7 35.7h4.8l30.9-30.9m-51.9-6.9-2.8 2.8v4.8l7.6-7.6m4.2 0-11.8 11.8v4.8l16.6-16.6m4.2 0-20.8 20.8v4.8l25.6-25.6m29.1 11.1-26.7 26.7h4.8l21.9-21.9m0 13.2-8.7 8.7h4.8l3.9-3.9m0-13.8-17.7 17.7h4.8l12.9-12.9m0 135 46.8-46.8h-4.8l-42 42m6.9 6.9 48.9-48.9h-4.8l-48.9 48.9m-.3-48.9h-1.8v1.8m0 9 10.8-10.8h-4.8l-6 6m20.1 42.9h4.8l48.9-48.9h-4.8m-69 28.8 28.8-28.8h-4.8l-24 24m0 13.8 37.8-37.8h-4.8l-33 33m0-13.2 19.8-19.8h-4.8l-15 15m15.9 33.9 48.9-48.9h-4.8l-48.9 48.9m40.8 0 2-2c.4-1.9.8-3.9 1.3-6l-8 8zm-18 0 30.8-30.8c1.7-3.2 3.5-6.6 5.4-10.1l-40.9 40.9zm9 0 13.9-13.9c.8-2.3 2.1-5.2 3.7-8.4l-22.3 22.3zm-31.2 76.2 36.9-36.9v-.6c.3-1.7.6-3.4.8-5l-42.5 42.5zm-11.7 0h2.7l47.4-47.4c.2-1.8.4-3.5.5-5.3l-50.6 50.6zm29.7 0 10.9-10.9c1.5-2.6 3-5.7 4.2-9l-19.9 19.9zm-9 0 26.2-26.2c.5-1.9.9-3.9 1.2-6l-32.2 32.2z"/><path d="m399 114.5 42.9-42.9h-4.8l-38.1 38.1m0-4.2 33.9-33.9h-4.8l-29.1 29.1m0 40.8 51-51c.2-1.7.3-3.5.5-5.3l-51.5 51.5zm0-18 51.9-51.9h-4.8l-47.1 47.1m0-22.2 24.9-24.9h-4.8l-20.1 20.1m0 40.8 52.1-52.1c.2-1.8.5-3.6.8-5.6l-52.9 52.9zm11.1-60.9-11.1 11.1v4.8l15.9-15.9m-13.8 0-2.1 2.1v4.8l6.9-6.9m-6.9-6.9-6.9 6.9h4.8l2.1-2.1m-12-46.8-42.7 42.7v4.8l47.5-47.5m-22.8 0-24.7 24.7v4.8l29.5-29.5m-13.8 0-15.7 15.7v4.8l20.5-20.5m13.2 0-33.7 33.7v4.8l38.5-38.5m-31.8 0-6.7 6.7v4.8l11.5-11.5m43.2 24-24.9 24.9h4.8l20.1-20.1m0-13.8-33.9 33.9h4.8l29.1-29.1m-54.7-19.8v2.5l2.5-2.5m52.2 6-42.9 42.9h4.8l38.1-38.1m0 22.2-15.9 15.9h4.8l11.1-11.1m-47.1 11.1 47.1-47.1v-1.8h-3l-48.9 48.9m51.9 38.1-38.1 38.1h4.8l33.3-33.3"/><path d="m399 136.7-11.1 11.1h4.8l6.3-6.3m-2.1 6.3h2.1v-2.1m0-27-29.1 29.1h4.8l24.3-24.3m0 4.2-20.1 20.1h4.8l15.3-15.3m-6.9-60.9-47.8 47.8v4.8l52.6-52.6m-31.8 0-20.8 20.8v4.8l25.6-25.6m4.2 0-29.8 29.8v4.8l34.6-34.6m20.1 2.1-54.7 54.7v4.8l54.7-54.7m-15.9-6.9-38.8 38.8v4.8l43.6-43.6m-40.8 0-2.8 2.8v4.8l7.6-7.6m4.2 0-11.8 11.8v4.8l16.6-16.6m38.1 11.1-54.7 54.7v4.8l54.7-54.7m0 4.2-54.7 54.7v1.4h3.4l51.3-51.3m0 4.2-47.1 47.1h4.8l42.3-42.3"/></g><path d="m480-164.5-4.5 4.5-69.6 69.6-6.9 6.9-30.9 30.9h4.2l26.7-26.7 11.1-11.1 69.6-69.6.3-.3 11.1-11.1 14-14c-.5-1-.9-1.9-1.4-2.8l-16.8 16.8zm4.5 4.5-4.5 4.5-65.1 65.1-15.9 15.9-21.9 21.9h4.2l17.7-17.7 20.1-20.1 60.9-60.9 8.7-8.7 11.4-11.4 7.8-7.8c-.4-1-.9-2-1.3-2.9l-10.8 10.8zm9 0-13.5 13.5-56.1 56.1-24.9 24.9-12.9 12.9h4.2l8.7-8.7 29.1-29.1 51.9-51.9 17.7-17.7 11.4-11.4 1.5-1.5-1.2-3-4.5 4.5zm-24.6-11.4-11.4 11.4-58.5 58.5-11.1 11.1-37.8 37.8h4.2l37.8-37.8 6.9-6.9 62.7-62.7 11.4-11.4 6.9-6.9 18.9-18.9c-.5-.9-1-1.8-1.6-2.7l-17.3 17.4zm9 0-11.4 11.4-67.5 67.5-2.1 2.1-37.8 37.8h4.2l35.7-35.7 2.1-2.1 69.6-69.6 9.3-9.3 2.1-2.1 20-20c-.5-.9-1-1.8-1.5-2.8l-20.6 20.7zm-67.8-81 14.7-14.7c-.9-.5-1.9-.9-2.8-1.4l-16.1 16.1-6.9 6.9-54.7 54.7v4.2l54.7-54.7zm-9 0 17.7-17.7c-1-.4-2-.9-2.9-1.3l-16.9 16.9-2.1 2.1-52.6 52.6v4.2l54.7-54.7zm18 0 11.6-11.6c-.9-.5-1.8-1-2.8-1.5l-13.1 13.1-15.8 15.9-54.7 54.7v4.2l54.7-54.7zm-69.7-33.5-5.1 5.1v4.2l9.2-9.2c-1.3-.1-2.7-.1-4.1-.1zm8.6.4-13.7 13.7v4.2l17.7-17.7c-1.3 0-2.7-.1-4-.2zm8.3.7-22 22v4.2l25.7-25.7c-1.2-.1-2.5-.3-3.7-.5zm11.4 1.8-3.6-.6-29.8 29.8v4.2l2.8-2.8zm7.5 1.5c-1.2-.3-2.3-.5-3.5-.8l-29.8 29.8-7.6 7.6v4.2l11.8-11.8zm7.2 1.9c-1.1-.3-2.2-.6-3.4-.9l-28.1 28.1-16.6 16.6v4.2l20.8-20.8zm6.6 2.3.3-.3c-.1 0-.2-.1-.3-.1-1-.3-1.9-.6-2.9-.9l-26.2 26.2-25.6 25.6v4.2l29.8-29.8zm0 9 7-7c-1-.4-2.1-.8-3.1-1.1l-3.9 3.9-20.1 20.1-34.6 34.6v4.2l38.8-38.8zm0 9 13.5-13.5-3-1.2-10.5 10.5-11.1 11.1-43.6 43.6v4.2l47.8-47.8zm-54.7-26.7v.4l.4-.4zm54.7 62.7 29.1-29.1 8.3-8.3c-.9-.5-1.8-1.1-2.7-1.6l-9.9 9.9-24.8 24.9-54.7 54.7v4.2l2.8-2.8zm0 54 2.1-2.1 66-66c-.7-.7-1.5-1.4-2.2-2l-65.9 65.9-2.1 2.1-11.4 11.4-41.2 41.2v4.2l45.4-45.4zm0 9 11.1-11.1 61.6-61.6-2.1-2.1-63.7 63.7-6.9 6.9-4.5 4.5-50.2 50.2v4.2l54.4-54.4zm-42.9-11.1 42.9-42.9 38.1-38.1 4.9-4.9c-.9-.6-1.7-1.1-2.6-1.7l-6.5 6.5-33.9 34-47.1 47.1-7.6 7.6v4.2l.4-.4zm9 0 33.9-33.9 47.1-47.1 1.2-1.2c-.8-.6-1.7-1.2-2.5-1.7l-3 3-42.8 42.8-38.1 38.1-11.4 11.4-5.2 5.2v4.2l9.4-9.4zm9 0 24.9-24.9 53.5-53.5-2.4-1.8-51.1 51.1-29.1 29.1-11.4 11.4-14.2 14.2v4.2l18.4-18.4zm9 0 15.9-15.9 58.6-58.6c-.8-.6-1.6-1.3-2.3-1.9l-56.3 56.3-20.1 20.1-11.4 11.4-23.2 23.2v4.2l27.4-27.4zm9 0 6.9-6.9 63.4-63.4c-.8-.7-1.5-1.3-2.3-2l-61.1 61.2-11.1 11.1-11.4 11.4-32.2 32.2v4.2l36.4-36.4zm112.8 81-24.9 24.9-12.9 12.9h4.2l8.7-8.7 29.1-29.1 13.4-13.4c0-1.4.1-2.9.1-4.3zm-24.9-47.1-47.1 47.1-33.9 33.9-3.9 3.9h4.2l37.8-37.8 42.9-42.9 26.7-26.7 6.2-6.2c-.4-1-.7-2.1-1.1-3.1l-9.4 9.4zm0 9-38.1 38.1-37.8 37.8h4.2l37.8-37.8 33.9-33.9 35.2-35.2c-.1-.2-.1-.4-.2-.6-.3-.9-.6-1.8-.8-2.7l-2.7 2.7zm0 45-30.9 30.9h4.2l26.7-26.7 11.1-11.1 31-31-.3-3.9-34.9 34.9zm0 9-21.9 21.9h4.2l17.7-17.7 20.1-20.1 22.4-22.4c0-1.4-.1-2.7-.1-4.1l-26.5 26.5zm0 18-3.9 3.9h4.2l37.8-37.8 3.9-3.9.3-4.5-8.4 8.4zm9.3 3.9 31.6-31.6.6-4.8-36.4 36.4zm9 0 20.7-20.7c.4-1.7.7-3.5 1-5.2l-25.9 25.9zm9 0 8.9-8.9 1.5-5.7-14.6 14.6zm6.2 0c.2-.7.4-1.4.7-2.1l-2.1 2.1zm-62.6-37.8-37.8 37.8h4.2l37.8-37.8 24.9-24.9 37.1-37.1c-.3-1.1-.6-2.2-.9-3.4l-36.2 36.3zm9 0-37.8 37.8h4.2l37.8-37.8 15.9-15.9 38.8-38.8c-.2-1.2-.5-2.3-.8-3.5l-38 38zm9 0-37.8 37.8h4.2l37.8-37.8 6.9-6.9 40.2-40.2-.6-3.6-39.6 39.6zm9 0-37.8 37.8h4.2l35.7-35.7 2.1-2.1 39.2-39.2c-.1-1.3-.3-2.5-.5-3.8l-40.8 40.9zm-70.2-69.6 11.4-11.4 56.9-56.9c-.7-.7-1.4-1.5-2-2.2l-59.1 59.1-11.4 11.4-4.5 4.5-54.7 54.7v4.2l54.7-54.7zm-8.7 17.7 17.7-17.7 11.4-11.4 51.9-51.9.3-.3-.3-.3c-.6-.6-1.1-1.3-1.7-1.9l-54.4 54.4-11.4 11.4-13.5 13.5-54.7 54.7v4.2l2.8-2.8zm0 9 26.7-26.7 11.4-11.4 42.9-42.9 4.3-4.3c-.6-.8-1.3-1.6-1.9-2.3l-2.5 2.5-47.1 47.1-11.3 11.3-22.5 22.5-47.1 47.1-7.6 7.6v4.2l11.8-11.8zm0 9 35.7-35.7 11.4-11.4 33.9-33.9 8.2-8.2-1.8-2.4-6.4 6.4-38.1 38.1-11.4 11.4-31.5 31.5-38.1 38.1-16.6 16.6v4.2l20.8-20.8zm0 9 44.7-44.7 11.4-11.4 24.9-24.9 12-12c-.6-.8-1.1-1.7-1.7-2.5l-10.3 10.3-29.1 29.1-11.4 11.4-40.5 40.5-29.1 29.1-25.6 25.6v4.2l29.8-29.8zm-15.9 24.9 15.9-15.9 53.7-53.7 11.4-11.4 15.9-15.9 15.5-15.5c-.5-.9-1.1-1.7-1.7-2.6l-13.8 13.9-20.1 20.1-11.4 11.4-49.5 49.5-20.1 20.1-34.6 34.6v3.2h1zm40.8 162-24.9 24.9-51.3 51.3h4.2l47.1-47.1 29.1-29.1 40.9-40.9c1.4-2.7 2.9-5.3 4.4-8h-.6zm-18 76.2 42.5-42.5c.2-1.7.4-3.3.6-4.9l-47.4 47.4zm9 0 32.2-32.2c.2-1.5.4-3.1.4-4.7l-36.9 36.9zm9 0 19.9-19.9c.8-2 1.5-4.1 2-6.3l-26.2 26.2zm7.8 0c0-.1 0-.2-.1-.3 1-.5 1.9-1.2 2.6-2.1l.1-.1h-.1c1.1-1.5 2.5-3.4 3.9-5.8.5-.8 1-1.7 1.5-2.6l-10.9 10.9zm-21.6-76.2 48.9-48.9h-4.2l-48.9 48.9-6.9 6.9-54.7 54.7v4.2l54.7-54.7m2.1-11.1 48.9-48.9h-4.2l-46.8 46.8-2.1 2.1-52.6 52.6v4.2l54.7-54.7m20.1-2.1 48.9-48.9h-4.2l-48.9 48.9-15.9 15.9-54.7 54.7v4.2l54.7-54.7m0 13.8-42.3 42.3h4.2l38.1-38.1 38.1-38.1 22.3-22.3c1.2-2.6 2.7-5.4 4.2-8.5l-30.8 30.8zm0 9-33.3 33.3h4.2l29.1-29.1 47.1-47.1 8-8c.2-1 .4-1.9.7-2.9.2-.8.5-1.8.9-2.9l-13.9 13.9zm0 9-24.3 24.3h4.2l20.1-20.1 52.9-52.9c.2-1 .4-2.1.6-3.2.1-.7.2-1.3.4-2l-2 2zm-34.2-100.8-20.5 20.5v4.2l24.7-24.7m4.8 0-29.5 29.5v4.2l33.7-33.7m4.8 0-38.5 38.5v4.2l42.7-42.7m9 0h-4.2l-47.5 47.5v4.2l2.8-2.8m51.9-42.9 6-6h-4.2l-1.8 1.8-47.1 47.1-7.6 7.6v4.2l11.8-11.8m42.9-33.9 15-15h-4.2l-10.8 10.8-38.1 38.1-16.6 16.6v4.2l20.8-20.8m33.9-24.9 24-24h-4.2l-19.8 19.8-29.1 29.1-25.6 25.6v4.2l29.8-29.8m24.9-15.9 33-33h-4.2l-28.8 28.8-20.1 20.1-34.6 34.6v4.2l38.8-38.8m15.9-6.9 42-42h-4.2l-37.8 37.8-11.1 11.1-43.6 43.6v4.2l47.8-47.8m-45.3-48.9-2.5 2.5v4.2l6.7-6.7m4.8 0-11.5 11.5v4.2l15.7-15.7m23.7 125.1h4.2l11.1-11.1 51.5-51.5c.2-1.5.4-3.1.6-4.8l-52.1 52.1zm9 0h4.2l2.1-2.1 50.6-50.6c.1-1.5.3-3.1.4-4.7l-51 51z" fill="#fada6c"/><path d="m359.8 148.2v-205.2c0-8.1-6.7-14.8-14.8-14.8s-14.8 6.7-14.8 14.8v205.2z" fill="#fff"/></svg>