<svg xmlns:xlink="http://www.w3.org/1999/xlink" xmlns="http://www.w3.org/2000/svg" viewBox="238 -240 497.4 500" width="500"  height="503" ><g fill="#92c746"><path d="m252.9-75.1c.2-.4.3-.9.5-1.3-.2.5-.3.9-.5 1.3zm-13.8 61.2c.2-2 .4-3.9.6-5.8-.2 1.9-.4 3.9-.6 5.8zm-.7 10c.1-2.4.3-4.9.5-7.3-.2 2.5-.4 4.9-.5 7.3zm122.9 132.6 1.4-17c.1-.7.4-1.4.9-2l4.4-4.4c.4-.4.6-.9.6-1.5v-15.1c0-4.4-3.6-8-8-8h-15.9c-4.4 0-8 3.6-8 8v15.1c0 .6.2 1.1.6 1.5l4.4 4.4c.5.5.8 1.2.9 2l1.4 16.8c.4 4.4 3.8 7.9 8.2 8.1 4.7.2 8.7-3.3 9.1-7.9z"/><circle cx="352.7" cy="66.9" r="11.5"/><path d="m394.7 136.6c4.7.2 8.7-3.3 9.1-7.9l1.4-17c.1-.7.4-1.4.9-2l4.4-4.4c.4-.4.6-.9.6-1.5v-15.1c0-4.4-3.6-8-8-8h-15.9c-4.4 0-8 3.6-8 8v15.1c0 .6.2 1.1.6 1.5l4.4 4.4c.5.5.8 1.2.9 2l1.4 16.8c.4 4.3 3.9 7.9 8.2 8.1z"/><circle cx="395.2" cy="66.9" r="11.5"/><path d="m446.3 128.7 1.4-17c.1-.7.4-1.4.9-2l4.4-4.4c.4-.4.6-.9.6-1.5v-15.1c0-4.4-3.6-8-8-8h-15.9c-4.4 0-8 3.6-8 8v15.1c0 .6.2 1.1.6 1.5l4.4 4.4c.5.5.8 1.2.9 2l1.4 16.8c.4 4.4 3.8 7.9 8.2 8.1 4.7.2 8.7-3.3 9.1-7.9z"/><circle cx="437.6" cy="66.9" r="11.5"/><path d="m488.8 128.7 1.4-17c.1-.7.4-1.4.9-2l4.4-4.4c.4-.4.6-.9.6-1.5v-15.1c0-4.4-3.6-8-8-8h-15.9c-4.4 0-8 3.6-8 8v15.1c0 .6.2 1.1.6 1.5l4.4 4.4c.5.5.8 1.2.9 2l1.4 16.8c.4 4.4 3.8 7.9 8.2 8.1 4.7.2 8.7-3.3 9.1-7.9z"/><circle cx="480.1" cy="66.9" r="11.5"/><path d="m384.9 191 4.4-4.4c.4-.4.6-.9.6-1.5v-15.1c0-4.4-3.6-8-8-8h-15.9c-4.4 0-8 3.6-8 8v15.1c0 .6.2 1.1.6 1.5l4.4 4.4c.5.5.8 1.2.9 2l1.4 16.8c.4 4.4 3.8 7.9 8.2 8.1 4.7.2 8.7-3.3 9.1-7.9l1.4-17c0-.8.4-1.5.9-2z"/><circle cx="373.9" cy="148.2" r="11.5"/><path d="m425 209.9 1.4-17c.1-.7.4-1.4.9-2l4.4-4.4c.4-.4.6-.9.6-1.5v-15.1c0-4.4-3.6-8-8-8h-15.9c-4.4 0-8 3.6-8 8v15.1c0 .6.2 1.1.6 1.5l4.4 4.4c.5.5.8 1.2.9 2l1.4 16.8c.4 4.4 3.8 7.9 8.2 8.1 4.8.3 8.8-3.3 9.1-7.9z"/><circle cx="416.4" cy="148.2" r="11.5"/><path d="m467.5 209.9 1.4-17c.1-.7.4-1.4.9-2l4.4-4.4c.4-.4.6-.9.6-1.5v-15.1c0-4.4-3.6-8-8-8h-15.9c-4.4 0-8 3.6-8 8v15.1c0 .6.2 1.1.6 1.5l4.4 4.4c.5.5.8 1.2.9 2l1.4 16.8c.4 4.4 3.8 7.9 8.2 8.1 4.7.3 8.7-3.3 9.1-7.9z"/><circle cx="458.9" cy="148.2" r="11.5"/><path d="m510 209.9 1.4-17c.1-.7.4-1.4.9-2l4.4-4.4c.4-.4.6-.9.6-1.5v-15.1c0-4.4-3.6-8-8-8h-15.9c-4.4 0-8 3.6-8 8v15.1c0 .6.2 1.1.6 1.5l4.4 4.4c.5.5.8 1.2.9 2l1.4 16.8c.4 4.4 3.8 7.9 8.2 8.1 4.7.3 8.7-3.3 9.1-7.9z"/><circle cx="501.4" cy="148.2" r="11.5"/><circle cx="395.2" cy="229.4" r="11.5"/><path d="m445.6 243.3h-15.9c-4.3 0-7.8 3.5-7.9 7.8 10.4 2.8 21 5 31.8 6.5v-6.3c0-4.4-3.6-8-8-8z"/><circle cx="437.6" cy="229.4" r="11.5"/><path d="m352.6 217.8c-1.1 0-2.1.2-3.1.5 4.7 3.1 9.5 6.1 14.4 8.9-1-5.3-5.7-9.4-11.3-9.4zm135.5 25.5h-15.9c-4.4 0-8 3.6-8 8v7.6c7.8.7 15.8 1.1 23.8 1.1 2.7 0 5.4-.1 8.1-.1v-8.6c0-4.4-3.6-8-8-8z"/><circle cx="480.1" cy="229.4" r="11.5"/><path d="m362.1-206c-6.1 3.6-12 7.4-17.7 11.4 0 0 0 .1.1.1 5.7-4 11.6-7.8 17.7-11.3z"/><path d="m352.2-188.3c4.7.2 8.7-3.3 9.1-7.9l.8-9.6c-6.1 3.5-12 7.3-17.7 11.3 1.1 3.4 4.1 6 7.8 6.2zm58.9-39.6c-9.8 3.2-19.3 6.9-28.5 11.2l.1.1c9.2-4.3 18.6-8 28.4-11.1z"/><path d="m385.1-213.2 1.4 16.8c.4 4.4 3.8 7.9 8.2 8.1 4.7.2 8.7-3.3 9.1-7.9l1.4-17c.1-.7.4-1.4.9-2l4.4-4.4c.4-.4.6-.9.6-1.5v-6.8c-9.7 3.1-19.2 6.9-28.4 11.1l1.5 1.5c.5.7.9 1.4.9 2.1zm68.3-24.4c-10.8 1.5-21.4 3.7-31.7 6.5v.2c10.3-2.8 20.9-5 31.7-6.5z"/><path d="m422.3-219.5 4.4 4.4c.5.5.8 1.2.9 2l1.4 16.8c.4 4.4 3.8 7.9 8.2 8.1 4.7.2 8.7-3.3 9.1-7.9l1.4-17c.1-.7.4-1.4.9-2l4.4-4.4c.4-.4.6-.9.6-1.5v-15.1c0-.5-.1-.9-.1-1.4-10.8 1.5-21.4 3.7-31.7 6.5v10c-.1.6.1 1.1.5 1.5zm72.8-20.2c0-.1-.1-.1-.1-.2-2.3-.1-4.6-.1-7-.1-7.8 0-15.6.4-23.3 1.1 0 .1 0 .1-.1.2 7.7-.7 15.4-1.1 23.3-1.1 2.5 0 4.8 0 7.2.1z"/><path d="m464.2-221c0 .6.2 1.1.6 1.5l4.4 4.4c.5.5.8 1.2.9 2l1.4 16.8c.4 4.4 3.8 7.9 8.2 8.1 4.7.2 8.7-3.3 9.1-7.9l1.4-17c.1-.7.4-1.4.9-2l4.4-4.4c.4-.4.6-.9.6-1.5v-15.1c0-1.3-.4-2.6-.9-3.7-2.4-.1-4.7-.1-7.1-.1-7.9 0-15.6.4-23.3 1.1-.3.8-.5 1.7-.5 2.7zm-101.2 87.1c.5.5.8 1.2.9 2l1.4 16.8c.4 4.4 3.8 7.9 8.2 8.1 4.7.2 8.7-3.3 9.1-7.9l1.4-17c.1-.7.4-1.4.9-2l4.4-4.4c.4-.4.6-.9.6-1.5v-15c0-4.4-3.6-8-8-8h-15.9c-4.4 0-8 3.6-8 8v15.1c0 .6.2 1.1.6 1.5z"/><circle cx="373.9" cy="-176.7" r="11.5"/><path d="m405.5-133.9c.5.5.8 1.2.9 2l1.4 16.8c.4 4.4 3.8 7.9 8.2 8.1 4.7.2 8.7-3.3 9.1-7.9l1.4-17c.1-.7.4-1.4.9-2l4.4-4.4c.4-.4.6-.9.6-1.5v-15c0-4.4-3.6-8-8-8h-15.9c-4.4 0-8 3.6-8 8v15.1c0 .6.2 1.1.6 1.5z"/><circle cx="416.4" cy="-176.7" r="11.5"/><path d="m447.9-133.9c.5.5.8 1.2.9 2l1.4 16.8c.4 4.4 3.8 7.9 8.2 8.1 4.7.2 8.7-3.3 9.1-7.9l1.4-17c.1-.7.4-1.4.9-2l4.4-4.4c.4-.4.6-.9.6-1.5v-15c0-4.4-3.6-8-8-8h-15.9c-4.4 0-8 3.6-8 8v15.1c0 .6.2 1.1.6 1.5z"/><circle cx="458.9" cy="-176.7" r="11.5"/><path d="m490.4-133.9c.5.5.8 1.2.9 2l1.4 16.8c.4 4.4 3.8 7.9 8.2 8.1 4.7.2 8.7-3.3 9.1-7.9l1.4-17c.1-.7.4-1.4.9-2l4.4-4.4c.4-.4.6-.9.6-1.5v-15c0-4.4-3.6-8-8-8h-15.9c-4.4 0-8 3.6-8 8v15.1c0 .6.2 1.1.6 1.5z"/><circle cx="501.4" cy="-176.7" r="11.5"/><path d="m360.7-81.6h-15.9c-4.4 0-8 3.6-8 8v15.1c0 .6.2 1.1.6 1.5l4.4 4.4c.5.5.8 1.2.9 2l1.4 16.8c.4 4.4 3.8 7.9 8.2 8.1 4.7.2 8.7-3.3 9.1-7.9l1.4-17c.1-.7.4-1.4.9-2l4.4-4.4c.4-.4.6-.9.6-1.5v-15.1c-.1-4.4-3.6-8-8-8z"/><circle cx="352.7" cy="-95.5" r="11.5"/><path d="m403.1-81.6h-15.9c-4.4 0-8 3.6-8 8v15.1c0 .6.2 1.1.6 1.5l4.4 4.4c.5.5.8 1.2.9 2l1.4 16.8c.4 4.4 3.8 7.9 8.2 8.1 4.7.2 8.7-3.3 9.1-7.9l1.4-17c.1-.7.4-1.4.9-2l4.4-4.4c.4-.4.6-.9.6-1.5v-15.1c0-4.4-3.6-8-8-8z"/><circle cx="395.2" cy="-95.5" r="11.5"/><path d="m445.6-81.6h-15.9c-4.4 0-8 3.6-8 8v15.1c0 .6.2 1.1.6 1.5l4.4 4.4c.5.5.8 1.2.9 2l1.4 16.6c.4 4.4 3.8 7.9 8.2 8.1 4.7.2 8.7-3.3 9.1-7.9l1.4-17c.1-.7.4-1.4.9-2l4.4-4.4c.4-.4.6-.9.6-1.5v-15.1c0-4.2-3.6-7.8-8-7.8z"/><circle cx="437.6" cy="-95.5" r="11.5"/><path d="m254.8-80.2c-.5 1.3-.9 2.6-1.4 3.9.5-1.4 1-2.6 1.4-3.9zm-3.5 9.6v.2c.5-1.5 1.1-3.1 1.6-4.6-.5 1.4-1.1 2.9-1.6 4.4z"/><path d="m251.9-57.1 4.4 4.4c.5.5.8 1.2.9 2l1.4 16.8c.4 4.4 3.8 7.9 8.2 8.1 4.7.2 8.7-3.3 9.1-7.9l1.4-17c.1-.7.4-1.4.9-2l4.4-4.4c.4-.4.6-.9.6-1.5v-15.1c0-4.4-3.6-8-8-8h-15.9c-1.6 0-3.1.5-4.4 1.3l-1.5 3.9c-.2.4-.3.9-.5 1.3-.6 1.5-1.1 3.1-1.6 4.6v11.9c0 .7.2 1.2.6 1.6zm15.1-49.9c-3.2 6-6.2 12.2-8.9 18.6v.1c2.8-6.5 5.8-12.7 8.9-18.7.1 0 .1 0 0 0z"/><path d="m267.2-84c6.4 0 11.5-5.2 11.5-11.5 0-6.4-5.2-11.5-11.5-11.5h-.1c-3.2 6.1-6.2 12.3-8.9 18.6 2.1 2.7 5.3 4.4 9 4.4zm31.5 31.3c.5.5.8 1.2.9 2l1.4 16.8c.4 4.4 3.8 7.9 8.2 8.1 4.7.2 8.7-3.3 9.1-7.9l1.4-17c.1-.7.4-1.4.9-2l4.4-4.4c.4-.4.6-.9.6-1.5v-15.1c0-4.4-3.6-8-8-8h-15.9c-4.4 0-8 3.6-8 8v15.1c0 .6.2 1.1.6 1.5z"/><circle cx="309.7" cy="-95.5" r="11.5"/><path d="m282.5 107.8c.4-.4.6-.9.6-1.5v-15.1c0-4.4-3.6-8-8-8h-15.8c-4.2 0-7.7 3.3-7.9 7.5 5.5 16.3 12.7 31.8 21.3 46.3 1.8-1.4 3-3.5 3.2-6l1.4-17c.1-.7.4-1.4.9-2z"/><circle cx="267.2" cy="69.4" r="11.5"/><path d="m318.3 131.1 1.4-17c.1-.7.4-1.4.9-2l4.4-4.4c.4-.4.6-.9.6-1.5v-15.1c0-4.4-3.6-8-8-8h-15.9c-4.4 0-8 3.6-8 8v15.1c0 .6.2 1.1.6 1.5l4.4 4.4c.5.5.8 1.2.9 2l1.4 16.8c.4 4.4 3.8 7.9 8.2 8.1 4.7.3 8.7-3.3 9.1-7.9z"/><circle cx="309.7" cy="69.4" r="11.5"/><path d="m296.4 161.4h-7.3c4.8 6.3 9.9 12.4 15.3 18.2v-10.2c0-4.4-3.6-8-8-8zm3.6-13.9c0-6.4-5.2-11.5-11.5-11.5-5.4 0-9.9 3.7-11.1 8.7 3.1 4.9 6.4 9.6 9.9 14.3.4 0 .8.1 1.3.1 6.2-.1 11.4-5.2 11.4-11.6zm38.9 13.9h-15.9c-4.4 0-8 3.6-8 8v15.1c0 .6.2 1.1.6 1.5l4.4 4.4c.5.5.8 1.2.9 2l.3 4c5.8 5.2 11.8 10.1 18 14.7.2-.5.3-1.1.3-1.7l1.4-17c.1-.7.4-1.4.9-2l4.4-4.4c.4-.4.6-.9.6-1.5v-15.1c.1-4.4-3.5-8-7.9-8z"/><circle cx="330.9" cy="147.5" r="11.5"/><path d="m254.6 49.9 1.4-17c.1-.7.4-1.4.9-2l4.4-4.4c.4-.4.6-.9.6-1.5v-15c0-4.4-3.6-8-8-8h-15.8c0 2.7-.1 5.3-.1 8 0 16.1 1.5 31.8 4.4 47.1 1 .4 2 .7 3.1.8 4.7.2 8.7-3.4 9.1-8zm-15.7-61c.1-.9.2-1.8.2-2.7 0 .8-.1 1.8-.2 2.7zm-.5 7.8v-.6zm1.6-18.4c-.1.7-.1 1.3-.2 2 .1-.7.1-1.3.2-2z"/><path d="m257.5-11.9c0-6.4-5.2-11.5-11.5-11.5-2.2 0-4.2.6-6 1.7-.1.7-.1 1.3-.2 2-.2 1.9-.4 3.9-.6 5.8-.1.9-.2 1.9-.3 2.8-.2 2.4-.4 4.8-.5 7.3v.6c2 1.8 4.7 2.9 7.6 2.9 6.4 0 11.5-5.2 11.5-11.6zm20 42.8c.5.5.8 1.2.9 2l1.4 16.8c.4 4.4 3.8 7.9 8.2 8.1 4.7.2 8.7-3.3 9.1-7.9l1.4-17c.1-.7.4-1.4.9-2l4.4-4.4c.4-.4.6-.9.6-1.5v-15c0-4.4-3.6-8-8-8h-15.9c-4.4 0-8 3.6-8 8v15.1c0 .6.2 1.1.6 1.5z"/><circle cx="288.5" cy="-11.9" r="11.5"/><path d="m320-133.9c.5.5.8 1.2.9 2l1.4 16.8c.4 4.4 3.8 7.9 8.2 8.1 4.7.2 8.7-3.3 9.1-7.9l1.4-17c.1-.7.4-1.4.9-2l4.4-4.4c.4-.4.6-.9.6-1.5v-15c0-4.4-3.6-8-8-8h-15.9c-4.4 0-8 3.6-8 8v15.1c0 .6.2 1.1.6 1.5zm10.9-31.3c6.4 0 11.5-5.2 11.5-11.5 0-4.9-3.1-9.1-7.5-10.8-5.3 4.1-10.4 8.4-15.3 12.9 1 5.3 5.7 9.4 11.3 9.4zm157.2 83.6h-15.9c-4.4 0-8 3.6-8 8v15.1c0 .6.2 1.1.6 1.5l4.4 4.4c.5.5.8 1.2.9 2l1.4 16.8c.4 4.4 3.8 7.9 8.2 8.1 4.7.2 8.7-3.3 9.1-7.9l1.4-17c.1-.7.4-1.4.9-2l4.4-4.4c.4-.4.6-.9.6-1.5v-15.1c0-4.4-3.6-8-8-8z"/><circle cx="480.1" cy="-95.5" r="11.5"/><path d="m373.5 55.4c4.7.2 8.7-3.3 9.1-7.9l1.4-17c.1-.7.4-1.4.9-2l4.4-4.4c.4-.4.6-.9.6-1.5v-15.1c0-4.4-3.6-8-8-8h-15.9c-4.4 0-8 3.6-8 8v15.1c0 .6.2 1.1.6 1.5l4.4 4.4c.5.5.8 1.2.9 2l1.4 16.8c.4 4.3 3.8 7.9 8.2 8.1z"/><circle cx="373.9" cy="-14.3" r="11.5"/><path d="m416 55.4c4.7.2 8.7-3.3 9.1-7.9l1.4-17c.1-.7.4-1.4.9-2l4.4-4.4c.4-.4.6-.9.6-1.5v-15.1c0-4.4-3.6-8-8-8h-15.9c-4.4 0-8 3.6-8 8v15.1c0 .6.2 1.1.6 1.5l4.4 4.4c.5.5.8 1.2.9 2l1.4 16.8c.3 4.3 3.8 7.9 8.2 8.1z"/><circle cx="416.4" cy="-14.3" r="11.5"/><path d="m458.4 55.4c4.7.2 8.7-3.3 9.1-7.9l1.4-17c.1-.7.4-1.4.9-2l4.4-4.4c.4-.4.6-.9.6-1.5v-15.1c0-4.4-3.6-8-8-8h-15.9c-4.4 0-8 3.6-8 8v15.1c0 .6.2 1.1.6 1.5l4.4 4.4c.5.5.8 1.2.9 2l1.4 16.8c.4 4.3 3.9 7.9 8.2 8.1z"/><circle cx="458.9" cy="-14.3" r="11.5"/><path d="m500.9 55.4c4.7.2 8.7-3.3 9.1-7.9l1.4-17c.1-.7.4-1.4.9-2l4.4-4.4c.4-.4.6-.9.6-1.5v-15.1c0-4.4-3.6-8-8-8h-15.9c-4.4 0-8 3.6-8 8v15.1c0 .6.2 1.1.6 1.5l4.4 4.4c.5.5.8 1.2.9 2l1.4 16.8c.4 4.3 3.9 7.9 8.2 8.1z"/><circle cx="501.4" cy="-14.3" r="11.5"/><path d="m531.2 128.7 1.4-17c.1-.7.4-1.4.9-2l4.4-4.4c.4-.4.6-.9.6-1.5v-15.1c0-4.4-3.6-8-8-8h-15.9c-4.4 0-8 3.6-8 8v15.1c0 .6.2 1.1.6 1.5l4.4 4.4c.5.5.8 1.2.9 2l1.4 16.8c.4 4.4 3.8 7.9 8.2 8.1 4.8.2 8.7-3.3 9.1-7.9z"/><circle cx="522.6" cy="66.9" r="11.5"/><path d="m564.6 136.6c4.7.2 8.7-3.3 9.1-7.9l1.4-17c.1-.7.4-1.4.9-2l4.4-4.4c.4-.4.6-.9.6-1.5v-15.1c0-4.4-3.6-8-8-8h-15.9c-4.4 0-8 3.6-8 8v15.1c0 .6.2 1.1.6 1.5l4.4 4.4c.5.5.8 1.2.9 2l1.4 16.8c.4 4.3 3.9 7.9 8.2 8.1z"/><circle cx="565.1" cy="66.9" r="11.5"/><path d="m607.1 136.6c4.7.2 8.7-3.3 9.1-7.9l1.4-17c.1-.7.4-1.4.9-2l4.4-4.4c.4-.4.6-.9.6-1.5v-15.1c0-4.4-3.6-8-8-8h-15.9c-4.4 0-8 3.6-8 8v15.1c0 .6.2 1.1.6 1.5l4.4 4.4c.5.5.8 1.2.9 2l1.4 16.8c.4 4.3 3.8 7.9 8.2 8.1z"/><circle cx="607.6" cy="66.9" r="11.5"/><path d="m658.7 128.7 1.4-17c.1-.7.4-1.4.9-2l4.4-4.4c.4-.4.6-.9.6-1.5v-15.1c0-4.4-3.6-8-8-8h-15.9c-4.4 0-8 3.6-8 8v15.1c0 .6.2 1.1.6 1.5l4.4 4.4c.5.5.8 1.2.9 2l1.4 16.8c.4 4.4 3.8 7.9 8.2 8.1 4.7.2 8.7-3.3 9.1-7.9z"/><circle cx="650" cy="66.9" r="11.5"/><path d="m552.5 209.9 1.4-17c.1-.7.4-1.4.9-2l4.4-4.4c.4-.4.6-.9.6-1.5v-15.1c0-4.4-3.6-8-8-8h-15.9c-4.4 0-8 3.6-8 8v15.1c0 .6.2 1.1.6 1.5l4.4 4.4c.5.5.8 1.2.9 2l1.4 16.8c.4 4.4 3.8 7.9 8.2 8.1 4.7.3 8.7-3.3 9.1-7.9z"/><circle cx="543.8" cy="148.2" r="11.5"/><path d="m597.3 191 4.4-4.4c.4-.4.6-.9.6-1.5v-15.1c0-4.4-3.6-8-8-8h-15.9c-4.4 0-8 3.6-8 8v15.1c0 .6.2 1.1.6 1.5l4.4 4.4c.5.5.8 1.2.9 2l1.4 16.8c.4 4.4 3.8 7.9 8.2 8.1 4.7.2 8.7-3.3 9.1-7.9l1.4-17c0-.8.3-1.5.9-2z"/><circle cx="586.3" cy="148.2" r="11.5"/><path d="m636.8 162.1h-15.9c-4.4 0-8 3.6-8 8v15.1c0 .6.2 1.1.6 1.5l4.4 4.4c.5.5.8 1.2.9 2l1.4 16.8c.3 4 3.3 7.2 7.1 8 3.4-2.3 6.8-4.7 10.1-7.1 0-.2.1-.4.1-.6l1.4-17c.1-.7.4-1.4.9-2l4.4-4.4c.4-.4.6-.9.6-1.5v-15.1c-.1-4.5-3.6-8.1-8-8.1z"/><circle cx="628.8" cy="148.2" r="11.5"/><path d="m663.3 162.1c-4.4 0-8 3.6-8 8v15.1c0 .6.2 1.1.6 1.5l4.4 4.4s0 .1.1.1c8.7-8.3 16.9-17.3 24.3-26.8-1.4-1.4-3.4-2.2-5.5-2.2h-15.9z"/><circle cx="671.3" cy="148.2" r="11.5"/><path d="m530.6 243.3h-15.9c-4.4 0-8 3.6-8 8v8c10.8-.8 21.5-2.3 31.9-4.4v-3.6c-.1-4.4-3.6-8-8-8z"/><circle cx="522.6" cy="229.4" r="11.5"/><path d="m557.1 243.3c-4.4 0-8 3.6-8 8v1.2c9.2-2.3 18.3-5.2 27.1-8.5-1-.4-2-.7-3.2-.7z"/><circle cx="565.1" cy="229.4" r="11.5"/><path d="m607.6 217.8c-6.4 0-11.5 5.2-11.5 11.5 0 2 .5 3.8 1.4 5.4 6.9-3.4 13.6-7 20.2-11-2.1-3.4-5.8-5.9-10.1-5.9zm-69.1-452.7c-10.2-2.1-20.6-3.6-31.2-4.4 0 .1 0 .1-.1.2 10.6.8 21 2.3 31.2 4.4z"/><path d="m506.7-221c0 .6.2 1.1.6 1.5l4.4 4.4c.5.5.8 1.2.9 2l1.4 16.8c.4 4.4 3.8 7.9 8.2 8.1 4.7.2 8.7-3.3 9.1-7.9l1.4-17c.1-.7.4-1.4.9-2l4.4-4.4c.4-.4.6-.9.6-1.5v-13.7c-10.2-2.1-20.6-3.6-31.2-4.4-.4.9-.6 2-.6 3zm74.3-1.1c-10.3-4.1-20.9-7.6-31.9-10.3v.2c10.9 2.7 21.6 6.2 31.9 10.3z"/><path d="m549.8-219.5 4.4 4.4c.5.5.8 1.2.9 2l1.4 16.8c.4 4.4 3.8 7.9 8.2 8.1 4.7.2 8.7-3.3 9.1-7.9l1.4-17c.1-.7.4-1.4.9-2l4.4-4.4c.4-.4.6-.9.6-1.5v-.9c-10.3-4.1-20.9-7.6-31.9-10.3v11.2c0 .6.2 1.1.6 1.5zm67.1 15.2c-6.6-4-13.4-7.7-20.4-11.1l.2.2.1.1c6.9 3.3 13.6 7 20.1 10.9z"/><path d="m598.9-196.4c.4 4.4 3.8 7.9 8.2 8.1 4.7.2 8.7-3.3 9.1-7.9l.7-7.9c-6.5-3.9-13.2-7.6-20.1-10.9.5.5.8 1.1.8 1.8zm-66 62.5c.5.5.8 1.2.9 2l1.4 16.8c.4 4.4 3.8 7.9 8.2 8.1 4.7.2 8.7-3.3 9.1-7.9l1.4-17c.1-.7.4-1.4.9-2l4.4-4.4c.4-.4.6-.9.6-1.5v-15c0-4.4-3.6-8-8-8h-15.9c-4.4 0-8 3.6-8 8v15.1c0 .6.2 1.1.6 1.5z"/><circle cx="543.8" cy="-176.7" r="11.5"/><path d="m575.4-133.9c.5.5.8 1.2.9 2l1.4 16.8c.4 4.4 3.8 7.9 8.2 8.1 4.7.2 8.7-3.3 9.1-7.9l1.4-17c.1-.7.4-1.4.9-2l4.4-4.4c.4-.4.6-.9.6-1.5v-15c0-4.4-3.6-8-8-8h-15.9c-4.4 0-8 3.6-8 8v15.1c0 .6.2 1.1.6 1.5z"/><circle cx="586.3" cy="-176.7" r="11.5"/><path d="m617.8-133.9c.5.5.8 1.2.9 2l1.4 16.8c.4 4.4 3.8 7.9 8.2 8.1 4.7.2 8.7-3.3 9.1-7.9l1.4-17c.1-.7.4-1.4.9-2l4.4-4.4c.4-.4.6-.9.6-1.5v-15c0-4.4-3.6-8-8-8h-15.9c-4.4 0-8 3.6-8 8v15.1c0 .6.2 1.1.6 1.5z"/><circle cx="628.8" cy="-176.7" r="11.5"/><path d="m687.2-141.1c-5.8-7.6-12-14.9-18.5-21.7h-.2c6.7 6.9 12.9 14.3 18.7 21.9z"/><path d="m655.3-154.8v15.1c0 .6.2 1.1.6 1.5l4.4 4.4c.5.5.8 1.2.9 2l1.4 16.8c.4 4.4 3.8 7.9 8.2 8.1 4.7.2 8.7-3.3 9.1-7.9l1.4-17c.1-.7.4-1.4.9-2l4.4-4.4c.4-.4.6-.9.6-1.5v-1.1c-5.8-7.7-12.1-15-18.7-21.9h-5.2c-4.4-.1-8 3.5-8 7.9zm-124.7 73.2h-15.9c-4.4 0-8 3.6-8 8v15.1c0 .6.2 1.1.6 1.5l4.4 4.4c.5.5.8 1.2.9 2l1.4 16.6c.4 4.4 3.8 7.9 8.2 8.1 4.7.2 8.7-3.3 9.1-7.9l1.4-17c.1-.7.4-1.4.9-2l4.4-4.4c.4-.4.6-.9.6-1.5v-15.1c-.1-4.2-3.6-7.8-8-7.8z"/><circle cx="522.6" cy="-95.5" r="11.5"/><path d="m573-81.6h-15.9c-4.4 0-8 3.6-8 8v15.1c0 .6.2 1.1.6 1.5l4.4 4.4c.5.5.8 1.2.9 2l1.4 16.8c.4 4.4 3.8 7.9 8.2 8.1 4.7.2 8.7-3.3 9.1-7.9l1.4-17c.1-.7.4-1.4.9-2l4.4-4.4c.4-.4.6-.9.6-1.5v-15.1c0-4.4-3.6-8-8-8z"/><circle cx="565.1" cy="-95.5" r="11.5"/><path d="m615.5-81.6h-15.9c-4.4 0-8 3.6-8 8v15.1c0 .6.2 1.1.6 1.5l4.4 4.4c.5.5.8 1.2.9 2l1.4 16.8c.4 4.4 3.8 7.9 8.2 8.1 4.7.2 8.7-3.3 9.1-7.9l1.4-17c.1-.7.4-1.4.9-2l4.4-4.4c.4-.4.6-.9.6-1.5v-15.1c0-4.4-3.6-8-8-8z"/><circle cx="607.6" cy="-95.5" r="11.5"/><path d="m642.1-81.6c-4.4 0-8 3.6-8 8v15.1c0 .6.2 1.1.6 1.5l4.4 4.4c.5.5.8 1.2.9 2l1.4 16.8c.4 4.4 3.8 7.9 8.2 8.1 4.7.2 8.7-3.3 9.1-7.9l1.4-17c.1-.7.4-1.4.9-2l4.4-4.4c.4-.4.6-.9.6-1.5v-15.1c0-4.4-3.6-8-8-8z"/><circle cx="650" cy="-95.5" r="11.5"/><path d="m543.4 55.4c4.7.2 8.7-3.3 9.1-7.9l1.4-17c.1-.7.4-1.4.9-2l4.4-4.4c.4-.4.6-.9.6-1.5v-15.1c0-4.4-3.6-8-8-8h-15.9c-4.4 0-8 3.6-8 8v15.1c0 .6.2 1.1.6 1.5l4.4 4.4c.5.5.8 1.2.9 2l1.4 16.8c.4 4.3 3.8 7.9 8.2 8.1z"/><circle cx="543.8" cy="-14.3" r="11.5"/><path d="m585.9 55.4c4.7.2 8.7-3.3 9.1-7.9l1.4-17c.1-.7.4-1.4.9-2l4.4-4.4c.4-.4.6-.9.6-1.5v-15.1c0-4.4-3.6-8-8-8h-15.9c-4.4 0-8 3.6-8 8v15.1c0 .6.2 1.1.6 1.5l4.4 4.4c.5.5.8 1.2.9 2l1.4 16.8c.3 4.3 3.8 7.9 8.2 8.1z"/><circle cx="586.3" cy="-14.3" r="11.5"/><path d="m637.4 47.5 1.4-17c.1-.7.4-1.4.9-2l4.4-4.4c.4-.4.6-.9.6-1.5v-15.1c0-4.4-3.6-8-8-8h-15.9c-4.4 0-8 3.6-8 8v15.1c0 .6.2 1.1.6 1.5l4.4 4.4c.5.5.8 1.2.9 2l1.4 16.8c.4 4.4 3.8 7.9 8.2 8.1 4.7.2 8.7-3.3 9.1-7.9z"/><circle cx="628.8" cy="-14.3" r="11.5"/><path d="m679.9 47.5 1.4-17c.1-.7.4-1.4.9-2l4.4-4.4c.4-.4.6-.9.6-1.5v-15.1c0-4.4-3.6-8-8-8h-15.9c-4.4 0-8 3.6-8 8v15.1c0 .6.2 1.1.6 1.5l4.4 4.4c.5.5.8 1.2.9 2l1.4 16.8c.4 4.4 3.8 7.9 8.2 8.1 4.7.2 8.7-3.3 9.1-7.9z"/><circle cx="671.3" cy="-14.3" r="11.5"/><path d="m700.5 80.9h-15.9c-4.4 0-8 3.6-8 8v15.1c0 .6.2 1.1.6 1.5l4.4 4.4c.5.5.8 1.2.9 2l1.4 16.8c.4 4.4 3.8 7.9 8.2 8.1 4.7.2 8.7-3.3 9.1-7.9l1.4-17c.1-.7.4-1.4.9-2l4.4-4.4c.4-.4.6-.9.6-1.5v-15.1c-.1-4.5-3.6-8-8-8z"/><circle cx="692.5" cy="66.9" r="11.5"/><path d="m681.6-52.7c.5.5.8 1.2.9 2l1.4 16.8c.4 4.4 3.8 7.9 8.2 8.1 4.7.2 8.7-3.3 9.1-7.9l1.4-17c.1-.7.4-1.4.9-2l4.4-4.4c.4-.4.6-.9.6-1.5v-15.1c0-4.4-3.6-8-8-8h-15.9c-4.4 0-8 3.6-8 8v15.1c0 .6.2 1.1.6 1.5z"/><circle cx="692.5" cy="-95.5" r="11.5"/><path d="m719.2 88.8v15.1c0 .3.1.6.2.9 3.2-7.8 6-15.8 8.4-24h-.7c-4.3.1-7.9 3.6-7.9 8zm4.4-21.9c0 4.1 2.2 7.7 5.4 9.8 1.9-6.9 3.5-14 4.8-21.2-5.7.7-10.2 5.5-10.2 11.4zm-3.8-140.5v15.1c0 .6.2 1.1.6 1.5l4.4 4.4c.5.5.8 1.2.9 2l1.3 16.6c.4 4.4 3.8 7.9 8.2 8.1h.2c-2.6-18.4-7.3-36.1-13.7-52.9-1.2 1.4-1.9 3.2-1.9 5.2zm1.9 73.2h-15.9c-4.4 0-8 3.6-8 8v15.1c0 .6.2 1.1.6 1.5l4.4 4.4c.5.5.8 1.2.9 2l1.4 16.8c.4 4.4 3.8 7.9 8.2 8.1 4.7.2 8.7-3.3 9.1-7.9l1.4-17c.1-.7.4-1.4.9-2l4.4-4.4c.4-.4.6-.9.6-1.5v-15.1c0-4.4-3.6-8-8-8z"/><circle cx="713.7" cy="-14.3" r="11.5"/><path d="m303.4-158.6c-9 9.9-17.2 20.4-24.6 31.6v.1c7.4-11.2 15.6-21.8 24.6-31.7z"/><path d="m288-107.1c4.7.2 8.7-3.3 9.1-7.9l1.4-17c.1-.7.4-1.4.9-2l4.4-4.4c.4-.4.6-.9.6-1.5v-14.9c0-1.3-.4-2.5-.9-3.6-9 9.9-17.2 20.5-24.6 31.7l1 11.6c.3 4.3 3.7 7.8 8.1 8z"/></g><path d="m341 32.9c.1-.7.4-1.4.9-2l4.4-4.4c.4-.4.6-.9.6-1.5v-15c0-4.4-3.6-8-8-8h-15.9c-4.4 0-8 3.6-8 8v15.1c0 .6.2 1.1.6 1.5l4.4 4.4c.5.5.8 1.2.9 2l1.4 16.8c.4 4.4 3.8 7.9 8.2 8.1 4.7.2 8.7-3.3 9.1-7.9z" fill="#1871c9"/><circle cx="330.9" cy="-11.9" fill="#1871c9" r="11.5"/><path d="m341 32.9c.1-.7.4-1.4.9-2l4.4-4.4c.4-.4.6-.9.6-1.5v-15c0-4.4-3.6-8-8-8h-15.9c-4.4 0-8 3.6-8 8v15.1c0 .6.2 1.1.6 1.5l4.4 4.4c.5.5.8 1.2.9 2l1.4 16.8c.4 4.4 3.8 7.9 8.2 8.1 4.7.2 8.7-3.3 9.1-7.9z" fill="#1871c9"/><circle cx="330.9" cy="-11.9" fill="#1871c9" r="11.5"/><path d="m341 32.9c.1-.7.4-1.4.9-2l4.4-4.4c.4-.4.6-.9.6-1.5v-15c0-4.4-3.6-8-8-8h-15.9c-4.4 0-8 3.6-8 8v15.1c0 .6.2 1.1.6 1.5l4.4 4.4c.5.5.8 1.2.9 2l1.4 16.8c.4 4.4 3.8 7.9 8.2 8.1 4.7.2 8.7-3.3 9.1-7.9z" fill="#1871c9"/><circle cx="330.9" cy="-11.9" fill="#1871c9" r="11.5"/><path d="m323 2h-.3l-7.7 7.7v4.8l12.5-12.5zm-7.1 24.9 2.4 2.4 25.6-25.6c-.9-.7-2-1.3-3.2-1.5zm5.9 16.8 25.1-25.1v-4.8l-25.5 25.5m10.3-37.3-16.7 16.7v4.8l21.5-21.5m-15.6 31 .2 2.4 25.8-25.8c-.1-1.3-.5-2.6-1.1-3.7l-25.5 25.5c.3.5.5 1 .6 1.6zm9 11.6 11.1-11.1.1-.7c.1-.7.4-1.4.9-2l4.4-4.4c.4-.4.6-.9.6-1.5v-2.2l-21.8 21.8h4.7zm9 0 1.2-1.2.5-5.2-6.5 6.4m-9 0-3 3 .2 2.2c.1.7.2 1.4.4 2l7.2-7.2zm5.4 13.3c4.7.2 8.7-3.3 9.1-7.9l.2-2-9.9 9.9zm3.6-13.3-10 10c.7.9 1.5 1.7 2.5 2.2l12.2-12.2zm-4.2-45 12.4-12.4c-.1-1.3-.4-2.6-1-3.8l-15.1 15.2c1.1.5 2.4.8 3.7 1zm7.3-21.1-15.9 15.9c.6.9 1.4 1.8 2.2 2.5l16.2-16.2c-.7-.8-1.5-1.6-2.5-2.2zm4.5 13.6-6.8 6.8c3.1-1.2 5.6-3.7 6.8-6.8zm-10.8-15.5h-.8l-10.7 10.7v.8c0 1.2.2 2.4.5 3.5l14.4-14.4c-1-.4-2.2-.6-3.4-.6z" fill="none"/><path d="m338.9 2h-2.4l-21.5 21.5v1.6c0 .6.2 1.1.6 1.5l.3.3 24.7-24.7c-.6-.1-1.1-.2-1.7-.2zm4.9 1.7-25.6 25.6 1.8 1.7c.1.1.2.3.3.4l25.5-25.4c-.5-.9-1.2-1.7-2-2.3zm3.1 5.9-25.8 25.8.3 3.9 25.5-25.5zm-25 35 .2 3 3-3 21.8-21.8v-4.2l-25.1 25.1m-6.8-34 7.7-7.7c-4.2.2-7.5 3.5-7.7 7.7zm12.5-7.7-12.5 12.5v4.2l16.7-16.7m-9 49.8c.3 1 .8 2 1.5 2.8l10-10 6.4-6.4.4-4.6-11.1 11.1zm4 5c1 .5 2 .9 3.2 1l9.9-9.9.3-3.4.1-1.3-1.3 1.3zm-7.3-69.5 10.7-10.7c-5.7.4-10.3 5-10.7 10.7zm1.9 7.1 15.9-15.9c-.9-.6-1.8-1-2.9-1.4l-14.4 14.5c.4 1 .8 2 1.4 2.8zm4.9 4.2 15.2-15.2c-.4-.9-1-1.8-1.6-2.6l-16.2 16.1c.7.7 1.6 1.2 2.6 1.7zm4.7 1c1.4 0 2.7-.3 4-.7l6.8-6.8c.5-1.2.7-2.6.7-4v-1l-12.5 12.5h1z" fill="#53c8ed"/></svg>